<svg width="30" height="31" viewBox="0 0 30 31" fill="none" xmlns="http://www.w3.org/2000/svg">
    <path fill-rule="evenodd" clip-rule="evenodd" d="M14.9584 0.565096C14.4238 0.627951 13.8892 0.690805 13.3558 0.75366C12.3218 0.983709 11.3585 1.24016 10.4658 1.62357C6.96942 3.1258 4.524 5.98947 3.32565 9.83116C2.86775 11.2994 2.41593 13.9796 2.953 16.4322C3.11862 17.1877 3.32565 17.7659 3.32565 18.6824C3.33174 21.3172 3.33783 23.9534 3.34392 26.5883C3.3561 28.538 3.12715 29.8592 4.5374 30.4463C5.39841 30.8046 6.08527 30.2539 6.53222 29.8982C7.49918 29.1251 8.70484 27.5298 9.9994 27.2319C10.5048 27.115 11.1381 27.1753 11.7141 27.1753H14.5285C15.191 27.2872 16.3589 27.2457 16.9898 27.1376C17.7802 27.0018 18.5169 26.9201 19.2269 26.7027C22.4968 25.6982 24.8436 23.6542 26.4792 20.9917C27.1258 19.937 27.5886 18.7125 27.9515 17.3788C28.6859 14.6873 28.3339 11.1612 27.4668 8.92479C25.6535 4.24713 21.4799 0.453214 14.9584 0.565096ZM25.2297 16.8671C24.868 18.0186 24.382 19.1085 23.7573 20.0061C22.4177 21.932 20.502 23.2469 17.9969 23.9961C17.4708 24.1533 16.9691 24.1105 16.3565 24.2237C15.465 24.3871 14.2667 24.2903 13.4666 24.1105C12.6336 23.9232 11.9017 23.6705 11.1917 23.3537C10.8592 23.2054 10.5109 22.822 10.148 22.7679C9.91049 22.7089 9.39413 23.36 9.21633 23.5059C8.52581 24.0703 7.06928 25.9748 6.10354 25.9836C5.8003 25.6907 5.89894 24.8296 5.89894 24.2438C5.89894 23.2192 5.77594 21.9169 6.15956 21.2556C6.44819 20.7578 7.06197 20.3945 7.27753 19.9131C7.25317 19.629 6.68445 18.8546 6.53222 18.5516C6.0938 17.6792 5.8003 16.6999 5.58109 15.6012C5.27541 14.0663 5.43616 12.0713 5.82344 10.779C6.76482 7.64129 8.71701 5.28424 11.5095 4.046C12.2098 3.73549 12.9794 3.53184 13.8027 3.34579C14.2009 3.29551 14.5979 3.24523 14.9962 3.19494C20.2877 3.18111 23.5125 6.03472 25.0068 9.87138C25.6997 11.6489 25.8666 14.847 25.2309 16.8684L25.2297 16.8671ZM28.3059 3.72292C29.3666 3.4275 29.2668 1.82596 27.9333 1.86996C27.6032 2.04218 27.3329 2.17795 27.2062 2.55131C26.9882 3.19243 27.6507 3.90646 28.3059 3.72418V3.72292ZM0.808386 2.57016C0.475917 2.70845 0.218953 2.79141 0.0996055 3.13712C-0.0928126 3.69778 0.452778 4.33387 1.05074 4.2157C2.02135 4.02337 1.91296 2.55508 0.808386 2.57016ZM24.0362 11.8941H23.9424C23.8498 12.2662 24.0021 12.4245 23.7938 12.7074C23.2714 12.8092 22.1083 12.8142 21.799 12.5754C21.7247 11.9519 21.6504 11.3271 21.5749 10.7036C21.413 10.0675 21.2522 9.43014 21.0902 8.79279C21.335 8.30378 22.2667 8.41064 22.4883 7.92288C22.4944 7.9166 22.5005 7.91031 22.5066 7.90403C22.4883 7.68026 21.7442 6.84052 21.5372 6.80658C21.1755 6.70853 20.7894 7.42507 20.4375 7.18497C20.2889 6.93229 20.1391 6.68087 19.9905 6.42819C19.6093 5.84742 18.8957 5.04539 17.9957 5.02905C17.9835 5.03533 17.9714 5.04162 17.958 5.0479C17.9324 5.31189 18.2441 5.59851 18.3684 5.80467C18.7021 6.35905 18.9371 6.9788 19.2075 7.60107C19.1746 7.943 18.8421 7.9166 18.5547 7.99831C17.919 8.17933 17.1907 8.39807 16.3918 8.37669C16.3187 8.31258 16.2652 8.2887 16.2238 8.18813C16.2177 7.98071 16.2116 7.77203 16.2055 7.56461C16.2055 7.07434 16.2895 4.96242 16.1312 4.7462C15.9814 4.54381 15.5284 4.59032 15.1801 4.59535C15.0242 4.67706 14.8878 4.70723 14.8257 4.87945C14.8196 5.68651 14.8135 6.49356 14.8074 7.30062C14.8074 7.7054 14.9 8.2623 14.6211 8.39807C14.3227 8.50492 12.1379 8.01214 11.937 7.88768C11.8931 7.81854 11.8505 7.7494 11.8067 7.68026C11.9577 6.62556 12.7541 5.89519 13.1487 5.07053C13.1305 5.05167 13.111 5.03282 13.0927 5.01396C12.8357 4.91716 12.4813 5.1711 12.3096 5.26035C11.8042 5.52308 11.395 5.92284 11.0796 6.37665C10.8884 6.64944 10.7739 7.13594 10.4646 7.28428C10.0895 7.23399 9.92145 6.91218 9.53296 6.86818C9.2894 7.00897 8.65734 7.5797 8.58183 7.85123C8.50633 8.20196 9.76313 8.44206 9.92389 8.79657C10.0091 9.03541 9.79602 9.40123 9.73756 9.60991C9.55488 10.2661 9.44771 10.9751 9.32715 11.6904C9.26626 12.0512 9.37465 12.5792 9.0848 12.7112H7.31407C7.05832 12.5892 7.19472 12.197 7.18376 11.8978H7.08999C6.82328 12.5364 6.60772 14.0299 7.0157 14.7351V14.7728H7.12774C7.17645 14.5666 7.07659 14.3881 7.23978 14.2813C7.39201 14.1468 8.75111 14.2197 9.0848 14.2247C9.32837 14.4912 9.25773 14.8935 9.34542 15.341C9.43919 15.8514 9.53175 16.3618 9.62552 16.8734C9.71929 17.2204 9.81185 17.5673 9.90562 17.913C9.55732 18.309 8.3955 18.3958 8.19091 18.8395C8.18482 18.8835 8.17873 18.9275 8.17264 18.9715C8.43326 19.287 8.69509 19.6026 8.95571 19.9168C9.05923 19.9671 10.1163 19.4794 10.2612 19.3876C10.6826 19.4303 10.8251 20.2739 10.9883 20.5982C11.3975 21.4128 11.9991 22.4763 13.1317 22.5278C13.1438 22.5153 13.156 22.5027 13.1694 22.4901C13.1049 22.1633 12.8041 21.8729 12.647 21.6014C12.3766 21.1312 12.2378 20.6045 12.032 20.069C11.9163 19.7698 11.6678 19.2996 11.7713 18.9338C12.2098 18.5994 13.8624 18.4146 14.6053 18.4046C14.6552 18.4548 14.7051 18.5051 14.7538 18.5554C14.8866 18.7289 14.8098 19.2958 14.8098 19.5762V21.8829C14.8098 22.1922 14.7563 22.6523 14.8841 22.8471C15.0973 23.1702 16.0167 23.0445 16.1897 22.7906C16.2079 21.3788 16.2274 19.9659 16.2457 18.5541C16.3614 18.3153 16.7949 18.4096 17.0665 18.4599C17.6742 18.5717 19.0674 18.617 19.2854 19.0645C18.9541 19.9068 18.7581 20.7956 18.372 21.5611C18.2551 21.7924 17.8788 22.2249 17.9251 22.4876C18.1358 22.5127 18.3026 22.3896 18.4658 22.3179C19.2951 21.9521 19.7092 21.3499 20.0685 20.5215C20.1951 20.2311 20.3571 19.502 20.6652 19.4052C21.0622 19.331 21.5116 19.8816 21.8392 19.9722C22.0499 20.0312 22.8171 19.1626 22.8829 19.008C22.889 18.964 22.8951 18.92 22.9012 18.876C22.5005 18.4511 21.3728 18.309 21.1304 17.8363C21.2047 17.5774 21.279 17.3197 21.3545 17.0607C21.4726 16.4812 21.5908 15.9004 21.7089 15.3209C21.771 14.9589 21.6772 14.358 21.9695 14.2235H23.7402C23.8937 14.3567 23.9375 14.4623 23.9448 14.7527C23.9826 14.759 24.0191 14.7653 24.0569 14.7715C24.4015 14.138 24.3699 12.5477 24.0386 11.9343V11.8966L24.0362 11.8941ZM14.7904 16.7728C14.6601 17.0544 14.2789 16.9199 13.933 16.9803C13.5287 17.0431 13.1256 17.106 12.7213 17.1688C12.278 17.282 11.7981 17.5057 11.3049 17.5095C10.9055 17.0708 10.6534 15.2555 10.6716 14.3894C10.7277 14.3328 10.7837 14.2762 10.8397 14.2197H14.6235C14.6966 14.2838 14.7502 14.3077 14.7916 14.4082V16.7728H14.7904ZM14.7904 12.5364C14.727 12.6093 14.7039 12.6659 14.604 12.7061H10.8385C10.584 12.5817 10.668 12.0826 10.7264 11.7797C10.8726 11.0254 10.9079 9.65516 11.3597 9.24535C11.6703 9.33334 11.9808 9.42134 12.2914 9.5106C12.7943 9.61116 13.2985 9.71173 13.8015 9.81356C14.1583 9.87515 14.6771 9.76076 14.7891 10.0599V12.5377L14.7904 12.5364ZM16.4125 9.83241C16.6427 9.81984 16.8729 9.80727 17.1018 9.7947C17.852 9.65265 18.959 9.52819 19.5436 9.19004C19.5752 9.19632 19.6057 9.20261 19.6374 9.20889C19.9126 9.31449 19.9369 9.7507 20.01 10.0599C20.1038 10.5389 20.1963 11.0179 20.2901 11.4968C20.3218 11.8312 20.3522 12.1656 20.3839 12.4987C20.334 12.5679 20.284 12.637 20.2353 12.7061C18.9615 12.7124 17.6876 12.7187 16.4137 12.725C16.3407 12.6609 16.2871 12.637 16.2457 12.5364C16.2396 11.6917 16.2335 10.8469 16.2274 10.0021C16.2907 9.92921 16.3139 9.87264 16.4137 9.83241H16.4125ZM20.3084 15.165C20.2231 15.6729 20.038 17.3838 19.6751 17.4906C19.4267 17.4278 19.1782 17.3649 18.9298 17.3021C18.3562 17.1563 17.7193 17.1035 17.103 16.9991C16.8034 16.9488 16.3833 17.0456 16.2639 16.8106C16.1677 16.676 16.1641 14.5956 16.2457 14.3894C16.2956 14.3328 16.3455 14.2762 16.3943 14.2197H20.2158C20.2597 14.27 20.3023 14.3202 20.3461 14.3705C20.446 14.5151 20.3425 14.9664 20.3084 15.165ZM2.3185 4.78265C2.16749 4.87191 2.00795 4.94733 1.92758 5.10447C1.7108 5.52057 2.07372 6.17049 2.54258 6.06867C3.22092 5.92158 3.15637 4.74746 2.3185 4.78265ZM29.1072 5.08562C29.0488 4.91465 28.8978 4.81031 28.6786 4.80151C28.5227 4.88322 28.4106 4.91465 28.3424 5.08562V5.31315C28.4898 5.77953 29.3252 5.55326 29.1072 5.08562ZM29.3873 23.8088C28.7468 24.1897 29.0354 25.0684 29.6674 24.8874C30.2849 24.7102 30.1619 23.7698 29.3873 23.8088ZM26.3671 24.5844C25.9896 24.7994 25.6681 24.9088 25.528 25.3601C25.3393 25.9685 26.0079 26.7479 26.6095 26.6461C27.9527 26.4198 27.8663 24.5404 26.3671 24.5844Z" fill="white"/>
</svg>
